<?xml version="1.0" standalone="no"?>
<!DOCTYPE svg PUBLIC "-//W3C//DTD SVG 20010904//EN"
 "http://www.w3.org/TR/2001/REC-SVG-20010904/DTD/svg10.dtd">
<svg version="1.0" xmlns="http://www.w3.org/2000/svg"
 width="640.000000pt" height="640.000000pt" viewBox="0 0 640.000000 640.000000"
 preserveAspectRatio="xMidYMid meet">
<metadata>
Created by potrace 1.11, written by Peter Selinger 2001-2013
</metadata>
<g transform="translate(0.000000,640.000000) scale(0.100000,-0.100000)"
fill="#000000" stroke="none">
<path d="M1425 4393 c-88 -20 -158 -72 -198 -148 l-22 -40 -3 -989 c-3 -1123
-8 -1051 78 -1136 86 -87 -86 -81 1935 -78 l1790 3 40 22 c54 28 119 100 136
149 12 32 14 212 14 1029 l0 990 -23 47 c-26 53 -87 112 -141 136 -33 16 -184
17 -1811 18 -976 1 -1784 0 -1795 -3z m3505 -1193 l0 -930 -1730 0 -1730 0 0
930 0 930 1730 0 1730 0 0 -930z"/>
<path d="M1746 3854 c-22 -21 -23 -226 -2 -243 9 -8 54 -11 132 -9 l119 3 3
120 c2 104 0 121 -15 132 -26 20 -217 18 -237 -3z"/>
<path d="M2282 3862 c-9 -7 -12 -40 -10 -133 l3 -124 125 0 125 0 3 119 c2 78
-1 123 -9 132 -8 10 -39 14 -118 14 -58 0 -112 -4 -119 -8z"/>
<path d="M2812 3862 c-9 -7 -12 -40 -10 -133 l3 -124 125 0 125 0 3 124 c2 93
-1 126 -10 133 -7 4 -60 8 -118 8 -58 0 -111 -4 -118 -8z"/>
<path d="M3348 3859 c-16 -9 -18 -26 -18 -122 0 -75 4 -117 12 -125 17 -17
229 -17 246 0 8 8 12 50 12 125 0 101 -2 113 -19 123 -25 13 -211 13 -233 -1z"/>
<path d="M3876 3854 c-22 -21 -23 -226 -2 -243 9 -8 54 -11 132 -9 l119 3 3
120 c2 104 0 121 -15 132 -26 20 -217 18 -237 -3z"/>
<path d="M4418 3859 c-16 -9 -18 -33 -18 -269 l0 -260 -123 0 c-82 0 -127 -4
-135 -12 -19 -19 -16 -222 4 -242 23 -24 485 -24 508 0 14 13 16 63 16 389 0
326 -2 376 -16 389 -12 13 -38 16 -117 16 -56 0 -110 -5 -119 -11z"/>
<path d="M1742 3318 c-19 -19 -16 -222 4 -242 13 -14 50 -16 252 -16 130 0
243 4 250 8 9 7 12 40 10 133 l-3 124 -250 3 c-187 2 -254 -1 -263 -10z"/>
<path d="M2542 3318 c-8 -8 -12 -50 -12 -125 0 -136 -3 -133 135 -133 138 0
135 -3 135 133 0 75 -4 117 -12 125 -17 17 -229 17 -246 0z"/>
<path d="M3071 3311 c-6 -11 -11 -65 -11 -120 0 -131 -1 -131 139 -131 81 0
112 4 120 14 8 9 11 54 9 132 l-3 119 -122 3 c-113 2 -123 1 -132 -17z"/>
<path d="M3607 3324 c-4 -4 -7 -62 -7 -130 0 -102 3 -123 16 -128 23 -9 217
-7 232 2 9 7 12 40 10 133 l-3 124 -121 3 c-66 1 -123 -1 -127 -4z"/>
<path d="M1742 2788 c-19 -19 -16 -222 4 -242 21 -22 226 -23 243 -2 8 9 11
54 9 132 l-3 119 -120 3 c-85 2 -124 -1 -133 -10z"/>
<path d="M2277 2793 c-4 -3 -7 -61 -7 -129 0 -102 3 -123 16 -128 9 -3 422 -6
919 -6 759 0 904 2 914 14 8 9 11 54 9 132 l-3 119 -921 3 c-506 1 -924 -1
-927 -5z"/>
<path d="M4407 2793 c-13 -12 -8 -238 5 -251 8 -8 49 -12 119 -12 139 0 139 0
139 131 0 143 4 139 -139 139 -65 0 -121 -3 -124 -7z"/>
</g>
</svg>
